<svg width="118" height="140" viewBox="0 0 118 140" fill="none" xmlns="http://www.w3.org/2000/svg">
<path d="M117.265 98.2692L58.3333 140L0 98.2692V0L42.9274 29.3162C60.5171 14.359 76.1823 19.0954 81.8162 23.3333L117.265 0V98.2692Z" fill="white"/>
<path d="M8.22656 14.9572V95.1282L57.7351 130.577C65.7522 131.414 65.1639 125.641 63.8676 122.65L41.4317 105.598C40.4744 100.812 44.7223 99.9145 46.9659 100.064L72.3932 118.91C80.6496 120.346 80.8192 114.622 79.8719 111.581L56.8377 94.6794C55.7608 89.2948 60.1781 88.7464 62.5214 89.1452L88.5471 107.991C96.5642 109.427 96.0756 103.205 94.8291 99.9145L71.9445 83.1623C70.7479 77.5384 75.3348 77.4287 77.7778 78.0769L100.812 95.1282C110.026 96.0854 108.241 89.245 106.197 85.7051L58.7821 52.0512C50.4061 60.527 31.2608 74.547 21.6881 62.8205C12.1155 51.094 27.4716 39.3874 36.3462 34.9999L8.22656 14.9572Z" fill="#FF5F15"/>
<path d="M59.53 29.1668L26.9231 52.7992C25.8462 60.218 31.3604 60.8762 34.2522 60.2779L55.7906 44.4232C59.1411 42.0301 62.2721 43.4261 63.4188 44.4232L108.44 77.7779V15.107L80.6197 34.2522C72.8419 26.1155 63.1197 27.2722 59.53 29.1668Z" fill="#001D49"/>
</svg>
